<?xml version="1.0" encoding="utf-8"?>
<!-- Generator: Adobe Illustrator 21.1.0, SVG Export Plug-In . SVG Version: 6.00 Build 0)  -->
<svg version="1.1" id="Layer_1" xmlns="http://www.w3.org/2000/svg" xmlns:xlink="http://www.w3.org/1999/xlink" x="0px" y="0px"
	 viewBox="0 0 1000 1000" style="enable-background:new 0 0 1000 1000;" xml:space="preserve">
<style type="text/css">
	.st0{clip-path:url(#SVGID_2_);fill:url(#SVGID_3_);}
	.st1{fill:#FFFFFF;}
</style>
<g>
	<g>
		<defs>
			<path id="SVGID_1_" d="M50,438.3c0,144,131.2,265.9,312.4,307.7l-46.6,138.8l434-177.8l0.5-0.2l0.5-0.2
				C870.9,648.6,950,550.1,950,438.3c0-178.4-201.5-323.1-450-323.1S50,259.9,50,438.3"/>
		</defs>
		<clipPath id="SVGID_2_">
			<use xlink:href="#SVGID_1_"  style="overflow:visible;"/>
		</clipPath>
		
			<linearGradient id="SVGID_3_" gradientUnits="userSpaceOnUse" x1="202.0473" y1="920.5765" x2="207.5503" y2="920.5765" gradientTransform="matrix(65.2445 113.0067 113.0067 -65.2445 -116920.0469 37372.5781)">
			<stop  offset="0" style="stop-color:#EA2C38"/>
			<stop  offset="0.2371" style="stop-color:#E72C39"/>
			<stop  offset="0.3797" style="stop-color:#DF2C3B"/>
			<stop  offset="0.4973" style="stop-color:#D12C3F"/>
			<stop  offset="0.6013" style="stop-color:#BC2C44"/>
			<stop  offset="0.6964" style="stop-color:#A22C4B"/>
			<stop  offset="0.785" style="stop-color:#822C53"/>
			<stop  offset="0.8685" style="stop-color:#5B2C5D"/>
			<stop  offset="0.946" style="stop-color:#302C68"/>
			<stop  offset="1" style="stop-color:#0D2C71"/>
		</linearGradient>
		<polygon class="st0" points="725,-274.5 1283.2,692.4 275,1274.5 -283.2,307.6 		"/>
	</g>
	<polygon class="st1" points="290.4,453 233,458 233,528.3 185.8,532.4 185.8,357.1 233,353 233,418.9 290.4,413.9 290.4,348 
		337.6,343.9 337.6,519.3 290.4,523.4 	"/>
	<polygon class="st1" points="413,337.4 413,475.4 466.8,470.7 466.8,508.1 364.8,516.9 364.8,341.6 	"/>
	<path class="st1" d="M601,467.8l-60.7,5.3l-9.2,29.4l-50,4.3L543.4,326l54.9-4.8l62.2,169.9l-50.3,4.4L601,467.8z M570.6,376.4
		l-18.2,58.3l36.7-3.2L570.6,376.4z"/>
	<path class="st1" d="M743.4,485.8c-40,3.5-71.2-12.5-73.2-49.9l53.3-4.6c1,13.1,8.9,16.9,18.1,16.1c8.9-0.8,15.8-5.8,15.8-14.1
		c-0.3-28.1-87.5-7.3-86.7-68.3c0-34.3,29.3-55.3,67.3-58.6c41.3-3.6,68.4,13.7,70.1,48.4l-54.3,4.7c-0.5-10.9-7.4-15.3-16.6-14.5
		c-7.4,0.4-13.3,5.1-13.3,13.6c0,26.1,86.5,10.1,86.5,66.4C810.4,455.8,786,482.1,743.4,485.8"/>
	<path class="st1" d="M301.7,601.7c-6.1,0.5-10.4-2.5-10.5-7.5l4.2-0.4c0.3,2.5,2.1,4.8,6.3,4.5c3.8-0.3,6.1-2.7,6.1-5.6
		c0-8.1-16.5-1.5-16.5-12.7c0-5,4.1-8.7,10.1-9.2c5.8-0.5,9.6,2.3,10.1,6.9l-4.4,0.4c-0.3-2-2.2-4.1-5.9-3.9
		c-3.3,0.2-5.9,2.1-5.9,5.4c0,7.8,16.4,1.5,16.4,12.7C311.8,596.6,308.2,601.2,301.7,601.7"/>
	<path class="st1" d="M332.3,599.1c-8.6,0.7-15.3-5-15.3-14.1c0-9.1,6.7-16,15.3-16.8c8.6-0.7,15.3,5,15.3,14.1
		C347.6,591.4,340.9,598.3,332.3,599.1 M332.3,595.7c6.4-0.6,11.2-5.6,11.2-13c0-7.4-4.8-11.6-11.2-11c-6.4,0.6-11.2,5.6-11.2,13
		C321.1,592,325.9,596.2,332.3,595.7"/>
	<path class="st1" d="M367.5,565.1c6.6-0.6,11.8,2.3,14.1,7.9l-4.8,0.4c-1.7-3.5-4.9-5.2-9.3-4.9c-6.4,0.6-11.1,5.6-11.1,13
		c0,7.4,4.8,11.5,11.1,11c4.5-0.4,7.7-2.7,9.3-6.4l4.8-0.4c-2.3,6-7.5,9.7-14.1,10.3c-8.5,0.7-15.2-5-15.2-14.1
		C352.3,572.9,359,565.9,367.5,565.1"/>
	<polygon class="st1" points="388.4,563.7 392.3,563.4 392.3,593.6 388.4,593.9 	"/>
	<path class="st1" d="M418,584.6l-13.3,1.2l-2.4,6.9l-4.2,0.4l11-31l4.6-0.4l11,29.1l-4.2,0.4L418,584.6z M411.4,566.8l-5.5,15.7
		l11-1L411.4,566.8z M415.6,551.4v3.4l-9.3,5.8v-2.9L415.6,551.4z"/>
	<polygon class="st1" points="434.3,559.7 434.3,586.7 445,585.8 445,589 430.3,590.3 430.3,560.1 	"/>
	<polygon class="st1" points="474,556.2 474,586.5 470,586.8 454.1,564.2 454.1,588.2 450.1,588.6 450.1,558.3 454.1,558 470,580.6 
		470,556.6 	"/>
	<path class="st1" d="M499.7,577.5l-13.3,1.2l-2.4,6.9l-4.2,0.4l11-31l4.6-0.4l11,29.1l-4.2,0.4L499.7,577.5z M493,559.7l-5.5,15.7
		l11-1L493,559.7z"/>
	<path class="st1" d="M550.2,564.8c0,9.4-6.2,15.6-16.2,16.4l-9.5,0.8v-30.2l9.5-0.8C544,550.2,550.2,555.5,550.2,564.8 M534,578
		c7.9-0.7,12.1-5.5,12.1-12.8c0-7.4-4.1-11.6-12.1-10.9l-5.5,0.5v23.7L534,578z"/>
	<polygon class="st1" points="572.7,550.9 560.3,552 560.3,562.1 571.4,561.1 571.4,564.4 560.3,565.3 560.3,575.7 572.7,574.7 
		572.7,577.9 556.3,579.3 556.3,549.1 572.7,547.7 	"/>
	<polygon class="st1" points="579.6,547.3 583.9,547 595.1,570.8 606.3,545 610.5,544.7 610.5,574.6 606.5,575 606.5,552.6 
		596.5,575.9 593.7,576.1 583.6,554.6 583.6,577 579.6,577.3 	"/>
	<path class="st1" d="M631.9,573.1c-8.6,0.7-15.3-5-15.3-14.1c0-9.1,6.7-16,15.3-16.8c8.6-0.7,15.3,5,15.3,14.1
		C647.2,565.4,640.5,572.3,631.9,573.1 M631.9,569.7c6.4-0.6,11.2-5.6,11.2-13c0-7.4-4.8-11.6-11.2-11c-6.4,0.6-11.2,5.6-11.2,13
		C620.7,566,625.5,570.2,631.9,569.7"/>
	<polygon class="st1" points="657.3,556.8 657.3,570.6 653.4,570.9 653.4,540.7 657.3,540.4 657.3,554.4 669.9,539.3 674.9,538.8 
		661.1,555.2 675.1,569 669.9,569.5 	"/>
	<path class="st1" d="M690.2,537.5c7.2-0.6,10.6,3,10.6,8c0,3.9-2.1,7.7-7.2,9.3l7.6,12l-4.8,0.4l-7.2-11.7l-4.8,0.4v12.3l-4,0.3
		v-30.2L690.2,537.5z M690.2,540.8l-5.8,0.5v11.4l5.8-0.5c4.5-0.4,6.5-3,6.5-6.4C696.7,542.4,694.8,540.4,690.2,540.8"/>
	<path class="st1" d="M725.8,557.9l-13.3,1.2l-2.4,6.9l-4.2,0.4l11-31l4.6-0.4l11,29.1l-4.2,0.4L725.8,557.9z M719.2,540l-5.5,15.7
		l11-1L719.2,540z"/>
	<path class="st1" d="M751.9,531.8c6.6-0.6,11.8,2.3,14.1,7.9l-4.8,0.4c-1.7-3.5-4.9-5.2-9.3-4.9c-6.4,0.6-11.1,5.6-11.1,13
		c0,7.4,4.8,11.5,11.1,11c4.5-0.4,7.7-2.7,9.3-6.4l4.8-0.4c-2.3,6-7.5,9.7-14.1,10.3c-8.5,0.7-15.2-5-15.2-14.1
		C736.7,539.5,743.4,532.5,751.9,531.8"/>
	<polygon class="st1" points="772.8,530.3 776.8,530 776.8,560.2 772.8,560.6 	"/>
	<path class="st1" d="M802.4,551.3l-13.3,1.2l-2.4,6.9l-4.2,0.4l11-31l4.6-0.4l11,29.1l-4.2,0.4L802.4,551.3z M795.8,533.4
		l-5.5,15.7l11-1L795.8,533.4z"/>
</g>
</svg>
