<!DOCTYPE svg PUBLIC "-//W3C//DTD SVG 20010904//EN" "http://www.w3.org/TR/2001/REC-SVG-20010904/DTD/svg10.dtd">
<svg version="1.0" xmlns="http://www.w3.org/2000/svg" width="891px" height="891px" viewBox="0 0 8910 8910" preserveAspectRatio="xMidYMid meet">
<g id="layer1" fill="#ffffff" stroke="none">
 <path d="M4202 8390 c-1177 -93 -2208 -658 -2909 -1594 -409 -547 -659 -1168 -755 -1876 -30 -224 -33 -738 -5 -955 71 -544 223 -1019 472 -1466 76 -137 265 -421 358 -537 187 -233 405 -453 620 -626 615 -494 1334 -786 2132 -867 155 -16 575 -16 730 0 676 68 1276 281 1830 647 739 489 1293 1211 1574 2053 193 578 250 1229 161 1836 -189 1289 -1008 2412 -2175 2985 -419 206 -857 333 -1325 385 -174 19 -551 27 -708 15z m523 -110 c931 -61 1784 -441 2453 -1094 634 -620 1018 -1395 1138 -2298 21 -161 30 -583 15 -759 -66 -798 -345 -1498 -850 -2134 -123 -155 -411 -443 -571 -571 -613 -490 -1292 -766 -2075 -845 -177 -18 -569 -15 -753 5 -1118 122 -2101 696 -2750 1606 -156 218 -335 541 -427 770 -130 326 -222 684 -265 1040 -18 144 -24 551 -11 715 72 916 448 1748 1086 2404 789 811 1885 1234 3010 1161z"/>
 <path d="M4550 7937 c0 -6 -9 -109 -20 -227 -11 -118 -20 -230 -20 -247 0 -33 0 -33 49 -33 l49 0 128 156 c71 86 130 150 132 143 1 -8 -4 -81 -11 -164 -8 -82 -12 -153 -10 -157 2 -5 24 -8 47 -8 42 0 44 1 49 38 10 67 41 462 36 466 -2 2 -24 7 -49 10 l-45 6 -130 -160 c-71 -87 -131 -156 -133 -151 -1 4 4 79 12 167 8 87 14 159 13 160 -1 1 -23 4 -49 7 -35 5 -48 3 -48 -6z"/>
 <path d="M4128 7920 c-26 -3 -50 -9 -54 -12 -3 -4 -10 -28 -15 -55 -5 -26 -13 -50 -17 -54 -4 -4 -44 -11 -89 -14 l-81 -7 -23 52 -22 52 -50 -6 c-27 -3 -52 -7 -54 -10 -2 -2 47 -111 110 -242 l115 -239 58 3 c33 2 60 5 61 6 4 3 113 530 110 531 -1 0 -23 -2 -49 -5z m-98 -227 c0 -19 -30 -196 -34 -200 -2 -2 -65 145 -81 189 -5 13 1 17 32 21 80 8 83 8 83 -10z"/>
 <path d="M5090 7872 c0 -31 51 -516 54 -520 2 -2 29 -9 59 -16 l55 -13 142 230 c77 126 140 230 138 232 -2 1 -25 7 -52 14 -54 13 -51 15 -87 -51 -22 -43 -20 -43 -119 -19 l-75 18 -3 57 c-3 61 -7 65 -79 79 -27 5 -33 3 -33 -11z m185 -226 c33 -9 49 -18 47 -27 -2 -8 -25 -51 -50 -96 l-47 -83 -6 58 c-10 82 -10 162 -1 162 4 0 30 -6 57 -14z"/>
 <path d="M3572 7833 c-23 -8 -46 -22 -50 -31 -5 -10 -31 -97 -57 -194 -27 -98 -52 -178 -56 -178 -3 0 -30 69 -60 154 l-53 154 -43 -15 c-24 -8 -43 -20 -43 -26 0 -14 156 -466 162 -473 3 -2 24 3 49 11 l44 15 54 195 c30 107 57 195 60 195 3 0 28 -64 54 -143 26 -78 52 -148 56 -155 6 -9 15 -10 42 -1 19 7 38 15 42 19 6 5 -146 476 -157 486 0 1 -20 -5 -44 -13z"/>
 <path d="M5613 7710 c-27 -11 -27 -11 -11 -62 9 -29 15 -37 27 -32 70 29 141 4 141 -50 0 -38 -32 -56 -122 -70 -98 -16 -116 -24 -151 -65 -82 -98 3 -241 143 -241 25 0 54 6 64 13 15 11 16 15 2 49 -15 34 -17 35 -58 31 -34 -4 -48 0 -66 17 -47 45 -3 86 109 101 86 12 125 32 156 79 29 42 31 112 4 156 -38 63 -167 102 -238 74z"/>
 <path d="M3049 7645 l-46 -24 8 -43 c14 -75 14 -76 -66 -115 l-75 -37 -42 41 -43 41 -49 -25 -49 -25 79 -80 c44 -44 132 -129 196 -190 l117 -110 51 28 c48 26 51 30 46 58 -3 17 -19 130 -36 251 -17 121 -34 228 -38 237 -6 15 -11 14 -53 -7z m11 -331 c10 -54 17 -101 14 -103 -5 -5 -143 139 -144 149 0 6 103 59 108 55 1 -1 11 -47 22 -101z"/>
 <path d="M5917 7350 l-118 -229 33 -17 c18 -9 70 -36 115 -61 l82 -44 21 40 20 41 -70 35 -70 35 27 54 26 55 70 -35 c38 -20 70 -34 72 -32 12 14 35 70 31 76 -2 4 -32 21 -65 37 -34 16 -61 33 -61 38 0 8 43 90 55 105 2 2 30 -10 64 -27 33 -17 64 -31 69 -31 13 0 44 59 37 70 -4 6 -55 35 -114 64 l-107 54 -117 -228z"/>
 <path d="M2566 7377 l-39 -33 18 -118 c9 -64 16 -119 14 -121 -2 -2 -31 34 -64 80 -33 47 -65 85 -70 85 -6 0 -26 -12 -44 -28 l-33 -27 127 -175 c70 -96 138 -190 152 -208 l24 -32 80 61 c89 67 119 107 119 157 0 87 -92 164 -169 142 l-29 -8 -12 117 c-16 164 -13 159 -74 108z m143 -307 c10 -5 24 -23 31 -40 10 -25 10 -34 -4 -55 -9 -13 -24 -29 -35 -34 -20 -11 -23 -9 -74 61 l-28 38 33 20 c37 22 51 24 77 10z"/>
 <path d="M6540 7151 l0 -49 38 4 c79 10 134 -64 83 -111 -18 -15 -30 -16 -103 -9 -135 13 -179 1 -217 -59 -62 -100 27 -237 155 -237 34 0 34 0 34 45 0 44 -1 45 -33 45 -45 0 -77 25 -77 59 0 48 17 53 142 46 103 -6 116 -5 146 14 46 30 72 77 72 134 0 42 -5 53 -40 91 -50 54 -94 76 -154 76 l-46 0 0 -49z"/>
 <path d="M5515 7175 c-5 -2 -29 -9 -53 -15 -36 -9 -43 -15 -40 -33 3 -20 8 -22 55 -19 42 3 53 0 62 -15 27 -47 39 -55 60 -43 21 11 21 11 -11 70 -30 55 -44 65 -73 55z"/>
 <path d="M2137 7042 c-15 -15 -27 -32 -27 -36 0 -4 61 -74 135 -156 74 -82 135 -152 135 -157 0 -5 -13 -19 -30 -31 -37 -27 -37 -32 -4 -71 l26 -31 106 96 c59 53 108 99 110 103 1 4 -11 20 -28 36 l-30 29 -33 -32 -34 -33 -138 153 c-76 84 -143 154 -149 156 -7 1 -24 -10 -39 -26z"/>
 <path d="M4310 7040 c-1099 -73 -2036 -825 -2346 -1884 -205 -703 -102 -1468 283 -2101 174 -285 456 -584 734 -777 324 -226 678 -369 1085 -440 112 -19 165 -22 409 -23 223 0 303 4 393 18 472 76 895 263 1257 554 127 103 338 319 437 449 472 619 643 1407 472 2172 -223 998 -1040 1792 -2040 1986 -229 44 -470 60 -684 46z m485 -126 c444 -54 880 -238 1247 -524 194 -151 431 -418 573 -645 256 -409 390 -914 371 -1405 -21 -589 -230 -1117 -619 -1567 -372 -431 -900 -725 -1482 -824 -154 -27 -495 -37 -657 -20 -580 61 -1108 311 -1519 721 -389 388 -635 882 -716 1435 -24 170 -24 526 1 690 83 547 323 1029 701 1411 557 562 1314 824 2100 728z"/>
 <path d="M4060 6122 l0 -381 -730 6 -730 6 0 -426 0 -427 725 0 725 0 0 -437 0 -436 -730 6 -730 7 0 -413 0 -414 533 -6 c292 -4 619 -7 725 -7 l192 0 0 -390 0 -390 280 -2 c154 -2 342 -3 418 -3 l137 0 5 389 5 388 713 -1 712 -2 0 415 0 416 -710 0 -710 0 0 437 0 436 715 -7 715 -7 0 425 0 426 -408 0 c-225 0 -544 3 -710 7 l-302 6 0 374 0 373 -208 0 c-115 0 -304 3 -420 7 l-212 6 0 -381z"/>
 <path d="M6740 6779 c-102 -95 -186 -176 -188 -179 -1 -3 13 -21 33 -40 l34 -33 138 129 c190 178 166 165 219 113 l44 -43 30 30 30 30 -77 83 -78 83 -185 -173z"/>
 <path d="M1905 6822 c-72 -45 -125 -139 -111 -196 6 -23 11 -26 51 -26 l45 0 0 44 c0 84 77 131 116 71 15 -22 15 -34 4 -105 -7 -44 -10 -96 -7 -115 13 -82 96 -137 174 -116 73 20 144 125 128 188 -5 20 -10 24 -28 19 -12 -3 -32 -6 -44 -6 -15 0 -21 -5 -17 -14 3 -7 -1 -30 -10 -49 -33 -79 -115 -48 -102 38 18 123 19 162 1 198 -35 75 -136 109 -200 69z"/>
 <path d="M7002 6634 c-61 -23 -147 -105 -169 -162 -51 -135 19 -288 154 -333 49 -16 150 -6 198 19 52 26 120 97 140 144 19 46 20 148 1 192 -20 47 -73 104 -120 128 -53 27 -147 33 -204 12z m174 -109 c69 -45 85 -143 35 -212 -33 -45 -101 -83 -150 -83 -71 0 -132 53 -147 127 -13 64 56 159 133 183 38 12 98 5 129 -15z"/>
 <path d="M1516 6323 l-27 -47 42 -42 41 -42 -44 -76 c-41 -74 -44 -77 -73 -71 -92 19 -88 20 -117 -29 -24 -40 -25 -46 -10 -50 9 -3 123 -26 252 -51 129 -25 242 -48 250 -50 10 -3 25 13 44 49 l29 53 -178 202 c-97 110 -179 201 -180 201 -2 0 -15 -21 -29 -47z m194 -278 c41 -41 69 -75 63 -75 -14 0 -197 41 -201 46 -5 4 50 104 57 104 4 0 40 -34 81 -75z"/>
 <path d="M7285 6100 c-143 -21 -261 -39 -263 -39 -1 -1 9 -24 23 -51 25 -50 26 -51 63 -44 20 4 104 19 187 35 82 15 151 26 153 25 1 -2 -63 -61 -142 -131 l-145 -128 25 -49 c22 -44 27 -47 43 -36 10 7 98 90 195 185 l177 172 -26 50 c-14 28 -26 51 -28 50 -1 0 -119 -18 -262 -39z"/>
 <path d="M1948 5904 c-61 -37 -63 -40 -49 -63 9 -14 26 -11 99 20 l43 19 -16 30 c-8 16 -17 30 -18 30 -1 0 -28 -17 -59 -36z"/>
 <path d="M7480 5694 c-129 -53 -236 -97 -237 -98 -5 -5 92 -236 98 -236 4 0 23 7 42 15 l36 15 -30 71 c-16 40 -28 73 -27 74 2 1 27 11 56 23 l53 21 15 -34 c50 -123 39 -111 89 -91 19 8 35 17 35 19 0 2 -11 31 -25 65 -14 34 -25 66 -25 70 0 8 110 56 115 50 1 -2 12 -30 25 -63 13 -33 26 -64 30 -68 7 -8 80 17 80 27 0 7 -91 236 -94 236 0 -1 -107 -44 -236 -96z"/>
 <path d="M1206 5707 c-9 -23 -16 -47 -15 -52 0 -6 94 -85 208 -177 l209 -167 20 55 20 54 -156 115 c-180 132 -185 124 58 100 80 -8 152 -15 161 -15 9 0 22 19 33 50 10 28 17 52 15 54 -5 4 -434 26 -495 26 -39 0 -42 -2 -58 -43z"/>
 <path d="M7600 5354 c-129 -31 -236 -57 -238 -59 -2 -2 0 -24 3 -49 l7 -45 194 -77 c107 -43 193 -79 191 -80 -1 -1 -74 -19 -162 -39 -88 -21 -161 -38 -163 -40 -8 -7 22 -96 32 -92 6 2 118 28 249 58 l238 54 -6 35 c-4 19 -11 42 -15 50 -5 9 -92 49 -195 90 -106 42 -180 77 -173 81 7 3 79 21 161 39 158 36 154 33 141 99 -4 17 -12 31 -18 30 -6 0 -117 -25 -246 -55z"/>
 <path d="M1225 5381 c-84 -22 -155 -90 -179 -172 -20 -65 -20 -83 -1 -145 30 -101 124 -172 240 -181 76 -6 133 9 187 50 144 110 120 341 -45 421 -56 28 -152 40 -202 27z m172 -127 c99 -74 95 -198 -8 -252 -114 -60 -272 32 -256 149 6 49 29 84 70 110 43 27 153 23 194 -7z"/>
 <path d="M7873 4828 l-32 -31 30 -28 c22 -21 29 -36 29 -66 0 -47 -8 -60 -43 -68 -30 -8 -50 10 -120 104 -48 66 -76 83 -136 83 -89 0 -141 -55 -141 -150 0 -58 15 -95 53 -130 l25 -23 27 35 27 35 -22 23 c-25 27 -24 85 1 101 30 19 65 -1 106 -60 67 -94 94 -116 155 -120 100 -8 158 50 158 157 0 62 -30 134 -65 157 -18 11 -24 9 -52 -19z"/>
 <path d="M1105 4802 c-88 -43 -133 -125 -142 -261 l-6 -87 253 -18 c138 -9 254 -15 257 -12 3 3 6 52 7 108 1 96 -1 107 -29 163 -44 87 -97 118 -213 122 -70 3 -95 0 -127 -15z m210 -108 c46 -24 75 -74 75 -128 l0 -39 -137 7 c-76 4 -153 10 -171 13 -33 5 -34 7 -27 42 10 54 35 89 80 112 49 25 124 22 180 -7z"/>
 <path d="M7480 4382 l0 -52 58 0 c31 0 81 -3 110 -7 l54 -6 -114 -74 c-62 -41 -117 -81 -121 -89 -4 -8 -7 -35 -5 -60 l3 -45 115 81 c62 44 119 80 125 80 5 0 66 -43 135 -96 136 -104 138 -104 139 -19 1 40 1 40 -124 129 -69 50 -125 91 -125 93 0 2 59 0 130 -4 l130 -6 0 50 0 50 -132 7 c-73 3 -188 9 -255 13 l-123 6 0 -51z"/>
 <path d="M1310 4344 c-234 -21 -287 -40 -325 -115 -35 -68 -7 -195 53 -238 50 -35 104 -39 296 -23 l176 15 -6 51 c-4 28 -7 51 -8 52 0 0 -84 -7 -184 -15 -163 -13 -187 -13 -210 0 -32 17 -47 56 -38 92 12 49 43 58 237 75 l180 15 -3 50 c-2 28 -7 51 -13 52 -5 2 -75 -3 -155 -11z"/>
 <path d="M7545 4000 c-112 -58 -167 -179 -135 -295 17 -60 81 -132 145 -161 74 -35 173 -33 246 4 153 77 182 281 57 398 -55 52 -95 67 -188 71 -70 3 -92 0 -125 -17z m201 -99 c115 -52 121 -212 10 -265 -76 -36 -188 -6 -234 64 -45 66 -16 164 59 202 44 23 113 22 165 -1z"/>
 <path d="M1422 3913 c-66 -49 -72 -56 -66 -81 4 -15 8 -28 9 -30 2 -2 37 14 79 35 l77 38 -6 35 c-12 60 -16 60 -93 3z"/>
 <path d="M1040 3821 c-29 -9 -29 -12 0 -131 17 -68 26 -90 39 -90 36 0 481 115 481 125 0 28 -22 85 -33 85 -7 0 -99 -22 -205 -49 -106 -27 -194 -46 -196 -42 -2 3 -9 30 -16 59 -13 54 -18 58 -70 43z"/>
 <path d="M1511 3092 c-67 -37 -90 -121 -48 -183 47 -72 134 -86 197 -33 118 100 -13 291 -149 216z"/>
 <path d="M7383 3094 c-45 -22 -78 -89 -69 -139 10 -50 60 -101 109 -110 71 -14 144 44 153 121 13 101 -98 175 -193 128z"/>
 <path d="M6711 2606 l-54 -54 42 -72 c22 -39 41 -75 41 -79 0 -3 -40 -47 -90 -96 l-89 -89 -75 40 -75 39 -58 -57 c-31 -32 -55 -59 -53 -62 3 -2 164 -79 359 -171 l354 -166 59 58 c32 32 57 65 56 73 -5 23 -349 690 -357 690 -4 0 -31 -24 -60 -54z m173 -452 c43 -75 75 -138 74 -140 -4 -3 -264 129 -275 140 -5 5 114 136 123 136 1 0 36 -61 78 -136z"/>
 <path d="M1956 2364 l-266 -257 41 -48 c22 -27 45 -52 51 -55 6 -4 64 47 129 112 85 85 119 113 119 99 0 -11 -13 -94 -29 -185 -16 -91 -31 -175 -33 -186 -2 -15 15 -42 51 -84 48 -54 56 -60 62 -44 4 10 20 107 35 214 14 107 27 196 28 197 0 1 109 20 241 43 132 23 241 42 242 44 1 1 -26 30 -60 64 l-63 62 -199 -40 c-110 -22 -211 -42 -225 -45 -18 -5 13 32 113 132 l137 139 -48 47 c-26 26 -50 47 -54 47 -3 0 -125 -115 -272 -256z"/>
 <path d="M2822 1941 c-162 -60 -284 -247 -269 -415 12 -142 78 -241 205 -303 69 -35 83 -38 156 -37 140 0 246 61 327 186 131 204 64 457 -149 556 -77 36 -193 41 -270 13z m180 -135 c66 -19 113 -59 137 -116 37 -87 22 -174 -47 -264 -47 -63 -108 -96 -176 -96 -131 1 -226 106 -213 235 11 112 93 214 197 246 37 11 52 10 102 -5z"/>
 <path d="M5935 1941 c-27 -10 -91 -41 -142 -70 l-92 -52 34 -62 c19 -34 101 -182 183 -329 l147 -267 78 42 c162 87 217 146 217 230 0 100 -60 175 -146 185 l-44 5 25 29 c57 68 53 162 -11 236 -62 72 -146 90 -249 53z m127 -148 c55 -58 45 -122 -24 -168 -33 -22 -42 -24 -49 -13 -25 38 -89 158 -89 167 0 18 53 40 96 41 31 0 46 -6 66 -27z m132 -304 c14 -17 26 -41 26 -54 0 -25 -53 -85 -75 -85 -13 0 -85 120 -85 141 0 13 38 28 77 28 23 1 38 -7 57 -30z"/>
 <path d="M5185 1641 c-151 -32 -170 -39 -169 -56 1 -22 145 -708 150 -714 2 -2 84 13 184 34 119 26 180 43 180 51 0 26 -22 114 -28 114 -4 0 -47 -9 -96 -20 -127 -28 -121 -30 -135 43 -7 34 -15 71 -17 83 -5 19 3 22 106 44 103 22 111 25 106 44 -3 12 -8 40 -12 64 -6 38 -10 43 -28 38 -79 -18 -197 -38 -202 -33 -4 3 -14 44 -24 91 l-17 84 108 23 c71 14 109 27 109 35 0 36 -23 114 -33 113 -7 0 -88 -17 -182 -38z"/>
 <path d="M3731 1338 c-35 -167 -65 -304 -66 -306 -1 -1 -32 4 -69 12 -50 10 -68 11 -71 2 -11 -37 -25 -109 -22 -112 5 -5 412 -92 416 -88 2 2 9 30 16 63 l12 61 -57 11 c-31 6 -62 14 -68 18 -9 5 5 87 48 287 33 153 62 289 65 301 4 19 -1 23 -47 33 -29 6 -62 13 -73 16 -19 5 -24 -14 -84 -298z"/>
 <path d="M4473 1553 l-93 -4 0 -103 c0 -56 3 -225 7 -374 l6 -272 73 0 72 0 -1 313 -2 312 88 3 87 3 0 64 0 65 -72 -2 c-40 -1 -115 -4 -165 -5z"/>
 </g>
<g id="layer2" fill="#006b2b" stroke="none">
 <path d="M4150 8699 c-1194 -89 -2266 -652 -3017 -1584 -108 -134 -295 -408 -375 -550 -547 -966 -697 -2080 -427 -3158 225 -896 734 -1686 1464 -2274 134 -108 409 -295 550 -375 966 -547 2080 -697 3158 -427 897 226 1684 732 2274 1464 108 134 295 408 375 550 547 966 697 2080 427 3158 -257 1021 -886 1910 -1764 2491 -312 207 -587 346 -925 469 -534 193 -1167 279 -1740 236z m760 -324 c1028 -114 1964 -615 2619 -1403 527 -633 840 -1397 911 -2217 15 -175 12 -518 -5 -701 -114 -1201 -758 -2276 -1760 -2938 -554 -366 -1154 -579 -1830 -647 -155 -16 -575 -16 -730 0 -1103 112 -2063 633 -2752 1493 -93 116 -282 400 -358 537 -249 447 -401 922 -472 1466 -28 217 -25 731 5 955 140 1031 623 1911 1409 2565 634 528 1407 838 2255 905 157 12 534 4 708 -15z"/>
 <path d="M4219 8279 c-950 -64 -1838 -475 -2504 -1160 -638 -656 -1014 -1488 -1086 -2404 -13 -164 -7 -571 11 -715 43 -356 135 -714 265 -1040 55 -135 209 -436 290 -565 357 -569 835 -1024 1409 -1345 451 -252 946 -408 1478 -466 184 -20 576 -23 753 -5 783 79 1462 355 2075 845 160 128 448 416 571 571 505 636 784 1336 850 2134 15 176 6 598 -15 759 -120 903 -504 1678 -1138 2298 -793 773 -1860 1168 -2959 1093z m428 -343 c1 -1 -5 -73 -13 -160 -8 -88 -13 -163 -12 -167 2 -5 62 64 133 151 l130 160 45 -6 c25 -3 47 -8 49 -10 5 -4 -26 -399 -36 -466 -5 -37 -7 -38 -49 -38 -23 0 -45 3 -47 8 -2 4 2 75 10 157 7 83 12 156 11 164 -2 7 -61 -57 -132 -143 l-128 -156 -49 0 c-49 0 -49 0 -49 33 0 17 9 129 20 247 11 118 20 221 20 227 0 9 13 11 48 6 26 -3 48 -6 49 -7z m-523 -276 c-30 -145 -55 -265 -57 -266 -1 -1 -28 -4 -61 -6 l-58 -3 -115 239 c-63 131 -112 240 -110 242 2 3 27 7 54 10 l50 6 22 -52 23 -52 81 7 c45 3 85 10 89 14 4 4 12 28 17 54 5 27 12 51 15 55 6 5 96 20 103 17 1 -1 -22 -120 -53 -265z m1053 209 c19 -7 22 -17 25 -65 l3 -57 75 -18 c99 -24 97 -24 119 19 36 66 33 64 87 51 27 -7 50 -13 52 -14 2 -2 -61 -106 -138 -232 l-142 -230 -55 13 c-30 7 -57 14 -59 16 -3 4 -54 489 -54 520 0 14 6 16 33 11 17 -3 42 -10 54 -14z m-1477 -263 c45 -131 78 -242 73 -246 -4 -4 -23 -12 -42 -19 -27 -9 -36 -8 -42 1 -4 7 -30 77 -56 155 -26 79 -51 143 -54 143 -3 0 -30 -88 -60 -195 l-54 -195 -44 -15 c-25 -8 -46 -13 -49 -11 -6 7 -162 459 -162 473 0 6 19 18 43 26 l43 15 53 -154 c30 -85 57 -154 60 -154 4 0 29 80 56 178 26 97 52 184 57 194 6 12 87 50 94 44 1 0 38 -108 84 -240z m2079 88 c64 -32 91 -72 91 -135 0 -54 -29 -103 -75 -130 -17 -10 -63 -22 -104 -28 -112 -15 -156 -56 -109 -101 18 -17 32 -21 66 -17 41 4 43 3 58 -31 14 -34 13 -38 -2 -49 -10 -7 -39 -13 -64 -13 -140 0 -225 143 -143 241 35 41 53 49 151 65 90 14 122 32 122 70 0 54 -71 79 -141 50 -12 -5 -18 3 -27 32 -16 51 -16 51 11 62 44 17 111 11 166 -16z m-2639 -279 c17 -121 33 -234 36 -251 5 -28 2 -32 -46 -58 l-51 -28 -117 110 c-64 61 -152 146 -196 190 l-79 80 49 25 49 25 43 -41 42 -41 75 37 c80 39 80 40 66 115 l-8 43 46 24 c42 21 47 22 53 7 4 -9 21 -116 38 -237z m3115 45 c7 -11 -24 -70 -37 -70 -5 0 -36 14 -69 31 -34 17 -62 29 -64 27 -12 -15 -55 -97 -55 -105 0 -5 27 -22 61 -38 33 -16 63 -33 65 -37 4 -6 -19 -62 -31 -76 -2 -2 -34 12 -72 32 l-70 35 -26 -55 -27 -54 70 -35 70 -35 -20 -41 -21 -40 -82 44 c-45 25 -97 52 -115 61 l-33 17 118 229 117 228 107 -54 c59 -29 110 -58 114 -64z m-3630 -62 c2 -7 9 -65 15 -129 l12 -117 29 8 c77 22 169 -55 169 -142 0 -50 -30 -90 -119 -157 l-80 -61 -24 32 c-14 18 -82 112 -152 208 l-127 175 33 27 c18 16 38 28 44 28 5 0 37 -38 70 -85 33 -46 62 -82 64 -80 2 2 -5 57 -14 121 l-18 118 39 33 c43 36 53 39 59 21z m4041 -214 c18 -9 51 -36 74 -60 35 -38 40 -49 40 -91 0 -57 -26 -104 -72 -134 -30 -19 -43 -20 -146 -14 -125 7 -142 2 -142 -46 0 -34 32 -59 77 -59 32 0 33 -1 33 -45 0 -45 0 -45 -34 -45 -128 0 -217 137 -155 237 38 60 82 72 217 59 73 -7 85 -6 103 9 51 47 -4 121 -83 111 l-38 -4 0 49 0 49 46 0 c25 0 61 -7 80 -16z m-1078 -64 c32 -59 32 -59 11 -70 -21 -12 -33 -4 -60 43 -9 15 -20 18 -62 15 -47 -3 -52 -1 -55 19 -3 18 4 24 40 33 24 6 48 13 53 15 29 10 43 0 73 -55z m-3263 -208 l138 -153 34 33 33 32 30 -29 c17 -16 29 -32 28 -36 -2 -4 -51 -50 -110 -103 l-106 -96 -26 31 c-33 39 -33 44 4 71 17 12 30 26 30 31 0 5 -61 75 -135 157 -74 82 -135 152 -135 156 0 14 54 65 66 62 6 -2 73 -72 149 -156z m2445 117 c491 -53 972 -255 1370 -576 246 -198 479 -481 643 -778 364 -663 416 -1491 138 -2201 -128 -328 -312 -611 -566 -873 -354 -364 -768 -601 -1257 -721 -227 -56 -317 -65 -623 -65 -301 1 -409 12 -634 70 -739 188 -1361 688 -1701 1365 -421 838 -361 1848 156 2622 550 823 1489 1262 2474 1157z m2280 -273 l-30 -30 -44 43 c-53 52 -29 65 -219 -113 l-138 -129 -34 33 c-20 19 -34 37 -33 40 2 3 86 84 188 179 l185 173 78 -83 77 -83 -30 -30z m-4993 56 c17 -12 38 -38 48 -59 18 -36 17 -75 -1 -198 -13 -86 69 -117 102 -38 9 19 13 42 10 49 -4 9 2 14 17 14 12 0 32 3 44 6 52 14 36 -90 -24 -157 -47 -52 -100 -67 -159 -44 -82 31 -105 92 -84 225 11 71 11 83 -4 105 -39 60 -116 13 -116 -71 l0 -44 -45 0 c-40 0 -45 3 -51 26 -14 57 39 151 111 196 39 24 111 20 152 -10z m5149 -190 c47 -24 100 -81 120 -128 19 -44 18 -146 -1 -192 -20 -47 -88 -118 -140 -144 -48 -25 -149 -35 -198 -19 -135 45 -205 198 -154 333 22 57 108 139 169 162 57 21 151 15 204 -12z m-5481 -453 l178 -202 -29 -53 c-19 -36 -34 -52 -44 -49 -8 2 -121 25 -250 50 -129 25 -243 48 -252 51 -15 4 -14 10 10 50 29 49 25 48 117 29 29 -6 32 -3 73 71 l44 76 -41 42 -42 42 27 47 c14 26 27 47 29 47 1 0 83 -91 180 -201z m5850 -80 l26 -50 -177 -172 c-97 -95 -185 -178 -195 -185 -16 -11 -21 -8 -43 36 l-25 49 145 128 c79 70 143 129 142 131 -2 1 -71 -10 -153 -25 -83 -16 -167 -31 -187 -35 -37 -7 -38 -6 -63 44 -14 27 -24 50 -23 51 2 0 120 18 263 39 143 21 261 39 262 39 2 1 14 -22 28 -50z m-5550 -179 l16 -30 -43 -19 c-73 -31 -90 -34 -99 -20 -5 8 -9 17 -9 21 0 5 108 77 117 78 1 0 10 -14 18 -30z m5739 -235 c25 -63 46 -118 46 -121 0 -10 -73 -35 -80 -27 -4 4 -17 35 -30 68 -13 33 -24 61 -25 63 -5 6 -115 -42 -115 -50 0 -4 11 -36 25 -70 14 -34 25 -63 25 -65 0 -4 -66 -33 -75 -33 -3 0 -13 16 -21 35 -7 19 -20 51 -28 70 l-15 34 -53 -21 c-29 -12 -54 -22 -56 -23 -1 -1 11 -34 27 -74 l30 -71 -36 -15 c-19 -8 -38 -15 -42 -15 -6 0 -103 231 -98 236 2 2 467 192 473 194 1 0 23 -52 48 -115z m-6234 64 c124 -7 227 -13 229 -15 2 -2 -5 -26 -15 -54 -11 -31 -24 -50 -33 -50 -9 0 -81 7 -161 15 -243 24 -238 32 -58 -100 l156 -115 -20 -54 -20 -55 -209 167 c-114 92 -208 171 -208 177 -1 5 6 29 15 52 20 51 -6 49 324 32z m6334 -360 c13 -66 17 -63 -141 -99 -82 -18 -154 -36 -161 -39 -7 -4 67 -39 173 -81 103 -41 190 -81 195 -90 4 -8 11 -31 15 -50 l6 -35 -238 -54 c-131 -30 -243 -56 -249 -58 -10 -4 -40 85 -32 92 2 2 75 19 163 40 88 20 161 38 162 39 2 1 -84 37 -191 80 l-194 77 -7 45 c-3 25 -5 47 -3 49 4 4 467 113 484 114 6 1 14 -13 18 -30z m-6437 -25 c165 -80 189 -311 45 -421 -54 -41 -111 -56 -187 -50 -116 9 -210 80 -240 181 -19 62 -19 80 1 145 24 82 95 150 179 172 50 13 146 1 202 -27z m6541 -564 c15 -30 22 -62 22 -100 0 -107 -58 -165 -158 -157 -61 4 -88 26 -155 120 -41 59 -76 79 -106 60 -25 -16 -26 -74 -1 -101 l22 -23 -27 -35 -27 -35 -25 23 c-38 35 -53 72 -53 130 0 95 52 150 141 150 60 0 88 -17 136 -83 70 -94 90 -112 120 -104 35 8 43 21 43 68 0 30 -7 45 -29 66 l-30 28 32 31 c28 28 34 30 52 19 11 -8 30 -33 43 -57z m-6601 -6 c37 -22 55 -42 78 -89 28 -56 30 -67 29 -163 -1 -56 -4 -105 -7 -108 -3 -3 -119 3 -257 12 l-253 18 6 87 c9 136 54 218 142 261 32 15 57 18 127 15 75 -3 93 -7 135 -33z m6491 -370 l132 -7 0 -50 0 -50 -130 6 c-71 4 -130 6 -130 4 0 -2 56 -43 125 -93 125 -89 125 -89 124 -129 -1 -85 -3 -85 -139 19 -69 53 -130 96 -135 96 -6 0 -63 -36 -125 -80 l-115 -81 -3 45 c-2 25 1 52 5 60 4 8 59 48 121 89 l114 74 -54 6 c-29 4 -79 7 -110 7 l-58 0 0 52 0 51 123 -6 c67 -4 182 -10 255 -13z m-6380 -111 l3 -50 -180 -15 c-194 -17 -225 -26 -237 -75 -9 -36 6 -75 38 -92 23 -13 47 -13 210 0 100 8 184 15 184 15 1 -1 4 -24 8 -52 l6 -51 -176 -15 c-192 -16 -246 -12 -296 23 -40 29 -68 92 -68 157 0 92 50 152 142 172 52 11 334 39 353 35 6 -1 11 -24 13 -52z m6312 -307 c190 -98 196 -355 11 -448 -73 -37 -172 -39 -246 -4 -199 92 -205 356 -10 456 33 17 55 20 125 17 56 -2 97 -9 120 -21z m-6275 -86 l6 -35 -77 -38 c-42 -21 -77 -37 -79 -35 -1 2 -5 15 -9 30 -6 25 0 32 66 81 77 57 81 57 93 -3z m-405 -132 c7 -29 14 -56 16 -59 2 -4 90 15 196 42 106 27 198 49 205 49 11 0 33 -57 33 -85 0 -10 -445 -125 -481 -125 -13 0 -22 22 -39 90 -29 119 -29 122 0 131 52 15 57 11 70 -43z m551 -704 c15 -15 34 -43 40 -62 23 -71 -29 -153 -106 -168 -69 -13 -155 59 -155 130 0 113 141 177 221 100z m5848 18 c97 -52 89 -185 -13 -236 -49 -24 -99 -15 -142 28 -46 46 -54 97 -24 152 36 70 111 93 179 56z m-557 -769 c95 -186 174 -345 176 -353 1 -8 -24 -41 -56 -73 l-59 -58 -354 166 c-195 92 -356 169 -359 171 -2 3 22 30 53 62 l58 57 75 -39 75 -40 89 89 c50 49 90 93 90 96 0 4 -19 40 -41 79 l-42 72 54 54 c29 30 56 54 60 54 4 0 85 -152 181 -337z m-4670 250 l48 -47 -137 -139 c-100 -100 -131 -137 -113 -132 14 3 115 23 225 45 l199 40 63 -62 c34 -34 61 -63 60 -64 -1 -2 -110 -21 -242 -44 -132 -23 -241 -42 -241 -43 -1 -1 -14 -90 -28 -197 -15 -107 -31 -204 -35 -214 -6 -16 -14 -10 -62 44 -36 42 -53 69 -51 84 2 11 17 95 33 186 16 91 29 174 29 185 0 14 -34 -14 -119 -99 -65 -65 -123 -116 -129 -112 -6 3 -29 28 -51 55 l-41 48 266 257 c147 141 269 256 272 256 4 0 28 -21 54 -47z m810 -645 c213 -99 280 -352 149 -556 -81 -125 -187 -186 -327 -186 -73 -1 -87 2 -156 37 -127 62 -193 161 -205 303 -15 168 107 355 269 415 77 28 193 23 270 -13z m3024 16 c47 -22 99 -86 114 -138 14 -52 1 -111 -35 -154 l-25 -29 44 -5 c86 -10 146 -85 146 -185 0 -84 -55 -143 -217 -230 l-78 -42 -147 267 c-82 147 -164 295 -183 329 l-34 62 92 52 c156 88 247 109 323 73z m-727 -314 c6 -28 11 -57 11 -64 0 -8 -38 -21 -109 -35 l-108 -23 17 -84 c10 -47 20 -88 24 -91 5 -5 123 15 202 33 18 5 22 0 28 -38 4 -24 9 -52 12 -64 5 -19 -3 -22 -106 -44 -103 -22 -111 -25 -106 -44 2 -12 10 -49 17 -83 14 -73 8 -71 135 -43 49 11 92 20 96 20 6 0 28 -88 28 -114 0 -8 -61 -25 -180 -51 -100 -21 -182 -36 -184 -34 -5 6 -149 692 -150 714 -1 17 18 24 169 56 94 21 175 38 182 38 6 1 16 -22 22 -49z m-1501 -10 c46 -10 51 -14 47 -33 -3 -12 -32 -148 -65 -301 -43 -200 -57 -282 -48 -287 6 -4 37 -12 68 -18 l57 -11 -12 -61 c-7 -33 -14 -61 -16 -63 -4 -4 -411 83 -416 88 -3 3 11 75 22 112 3 9 21 8 71 -2 37 -8 68 -13 69 -12 1 2 31 139 66 306 60 284 65 303 84 298 11 -3 44 -10 73 -16z m822 -125 l0 -64 -87 -3 -88 -3 2 -312 1 -313 -72 0 -73 0 -6 272 c-4 149 -7 318 -7 374 l0 103 93 4 c50 1 125 4 165 5 l72 2 0 -65z"/>
 <path d="M3947 7703 c-31 -4 -37 -8 -32 -21 16 -44 79 -191 81 -189 4 4 34 181 34 200 0 18 -3 18 -83 10z"/>
 <path d="M5211 7608 c1 -29 4 -79 8 -110 l6 -58 47 83 c25 45 48 88 50 96 2 9 -14 18 -47 27 -27 8 -53 14 -57 14 -5 0 -8 -24 -7 -52z"/>
 <path d="M2983 7392 c-29 -14 -53 -29 -53 -32 1 -10 139 -154 144 -149 4 4 -30 199 -36 204 -2 2 -27 -9 -55 -23z"/>
 <path d="M2632 7060 l-33 -20 28 -38 c51 -70 54 -72 74 -61 11 5 26 21 35 34 14 21 14 30 4 55 -22 52 -56 62 -108 30z"/>
 <path d="M4330 6929 c-887 -45 -1710 -593 -2105 -1404 -113 -232 -191 -486 -231 -750 -25 -164 -25 -520 -1 -690 81 -553 327 -1047 716 -1435 411 -410 939 -660 1519 -721 162 -17 503 -7 657 20 999 171 1789 899 2029 1872 47 191 65 320 72 519 26 695 -236 1360 -731 1855 -214 214 -399 347 -670 480 -398 196 -797 277 -1255 254z m362 -439 l208 0 0 -373 0 -374 302 -6 c166 -4 485 -7 710 -7 l408 0 0 -426 0 -425 -715 7 -715 7 0 -436 0 -437 710 0 710 0 0 -416 0 -415 -712 2 -713 1 -5 -388 -5 -389 -137 0 c-76 0 -264 1 -418 3 l-280 2 0 390 0 390 -192 0 c-106 0 -433 3 -725 7 l-533 6 0 414 0 413 730 -7 730 -6 0 436 0 437 -725 0 -725 0 0 427 0 426 730 -6 730 -6 0 381 0 381 212 -6 c116 -4 305 -7 420 -7z"/>
 <path d="M7047 6540 c-77 -24 -146 -119 -133 -183 15 -74 76 -127 147 -127 49 0 117 38 150 83 85 117 -26 271 -164 227z"/>
 <path d="M1596 6069 c-16 -28 -26 -52 -24 -53 4 -5 187 -46 201 -46 6 0 -22 34 -63 75 -41 41 -77 75 -81 75 -3 0 -18 -23 -33 -51z"/>
 <path d="M1203 5261 c-131 -82 -71 -259 94 -277 126 -14 217 118 151 216 -39 57 -71 74 -146 78 -54 2 -73 -1 -99 -17z"/>
 <path d="M1135 4701 c-45 -23 -70 -58 -80 -112 -7 -35 -6 -37 27 -42 18 -3 95 -9 171 -13 l137 -7 0 39 c0 85 -64 144 -164 151 -37 3 -62 -1 -91 -16z"/>
 <path d="M7581 3902 c-48 -24 -73 -62 -78 -119 -6 -61 23 -108 87 -140 81 -41 177 -24 222 40 32 44 31 121 -1 166 -46 64 -158 90 -230 53z"/>
 <path d="M6740 2225 c-35 -35 -61 -67 -57 -71 11 -11 271 -143 275 -140 2 3 -147 276 -152 276 -1 0 -30 -29 -66 -65z"/>
 <path d="M2900 1811 c-104 -32 -186 -134 -197 -246 -13 -129 82 -234 213 -235 68 0 129 33 176 96 69 90 84 177 47 264 -24 57 -71 97 -137 116 -50 15 -65 16 -102 5z"/>
 <path d="M5928 1804 c-16 -8 -28 -19 -28 -25 0 -9 64 -129 89 -167 7 -11 16 -9 49 13 69 46 79 110 24 168 -30 31 -88 36 -134 11z"/>
 <path d="M6083 1510 c-13 -5 -23 -14 -23 -19 0 -21 72 -141 85 -141 22 0 75 60 75 85 0 13 -12 37 -26 54 -27 33 -65 39 -111 21z"/>
 </g>

</svg>