<?xml version="1.0" encoding="utf-8"?>
<!-- Generator: Adobe Illustrator 16.0.0, SVG Export Plug-In . SVG Version: 6.00 Build 0)  -->
<!DOCTYPE svg PUBLIC "-//W3C//DTD SVG 1.1//EN" "http://www.w3.org/Graphics/SVG/1.1/DTD/svg11.dtd">
<svg version="1.1" id="Ebene_1" xmlns="http://www.w3.org/2000/svg" xmlns:xlink="http://www.w3.org/1999/xlink" x="0px" y="0px"
	 width="178.877px" height="201.741px" viewBox="-0.019 0 178.877 201.741" enable-background="new -0.019 0 178.877 201.741"
	 xml:space="preserve">
<g id="Background">
</g>
<g id="Guides">
</g>
<g id="Foreground">
	<g>
		<g>
			<rect fill="#002E74" width="177.994" height="177.992"/>
			<path fill="#002E74" d="M88.998,88.995"/>
		</g>
		<path fill="#FFFFFF" d="M114.486,98.988"/>
		<path fill="#FFFFFF" d="M158.218,40.402c-3.771,0-6.725-1.047-8.885-3.115c-1.979-1.911-2.979-4.559-2.979-7.969V11.865h6.655
			v15.652c0,2.829,0.342,4.823,1.076,5.895c0.752,1.107,2.168,1.619,4.127,1.619c1.967,0,3.383-0.512,4.138-1.619
			c0.735-1.071,1.078-3.065,1.078-5.895V11.865h6.657v17.453c0,3.41-1.004,6.051-2.979,7.947
			C164.934,39.347,161.98,40.402,158.218,40.402z M123.898,32.043v7.93h-6.788V11.865h6.788v11.363l10.337-11.363h9.054
			L132.948,22.56l10.718,17.412h-7.742l-7.529-12.666L123.898,32.043z M82.402,31.16c0,3.113-1.054,5.479-3.15,7.145
			c-2.105,1.669-5.11,2.523-9.058,2.523c-3.089,0-5.687-0.475-7.795-1.42c-2.035-0.912-3.938-2.402-5.705-4.479l5.289-3.176
			c2.433,2.579,5.24,3.879,8.409,3.879c1.645,0,2.965-0.299,3.941-0.923c0.988-0.627,1.496-1.515,1.496-2.642
			c0-1.467-1.326-2.367-3.588-2.828l-5.793-1.172c-2.718-0.541-4.687-1.467-5.941-2.75c-1.245-1.278-1.877-3-1.877-5.199
			c0-2.75,1.006-4.943,3.024-6.604c2.024-1.664,4.72-2.51,8.11-2.51c4.773,0,9.021,1.869,12.753,5.634l-5.038,3.427
			c-2.425-2.555-4.963-3.858-7.6-3.858c-1.24,0-2.279,0.286-3.09,0.885c-0.826,0.604-1.246,1.405-1.246,2.384
			c0,0.775,0.252,1.405,0.774,1.854c0.515,0.436,1.364,0.75,2.505,0.979l5.674,1.174c2.93,0.584,4.963,1.469,6.137,2.627
			C81.803,27.259,82.402,28.929,82.402,31.16z M112.193,25.908c0,9.392-4.93,14.064-14.922,14.064H87.089V11.865h10.184
			C107.265,11.865,112.193,16.531,112.193,25.908z M93.876,17.408v17.023h3.646c5.244,0,7.888-2.891,7.888-8.522
			c0-5.617-2.645-8.5-7.888-8.5L93.876,17.408L93.876,17.408z M162.177,0v7.908h-7.91V0H162.177z"/>
		<path fill="#002E74" d="M175.675,196.484l-1.498-4.318l-1.598,4.318H175.675z M176.112,197.714h-3.999l-1.224,3.257h-1.574
			l4.146-10.646h1.498l3.881,10.646h-1.56L176.112,197.714z M167.99,190.324v10.646h-1.396l-5.644-8.283v8.283h-1.343v-10.646h1.396
			l5.646,8.328v-8.328H167.99z M155.126,196.484l-1.496-4.318l-1.601,4.318H155.126z M155.565,197.714h-3.999l-1.225,3.257h-1.573
			l4.146-10.646h1.496l3.883,10.646h-1.56L155.565,197.714z M140.943,195.24h3.305c1.396,0,2.09-0.596,2.09-1.781
			c0-0.604-0.184-1.072-0.551-1.404c-0.369-0.334-0.89-0.5-1.563-0.5h-3.282L140.943,195.24L140.943,195.24z M140.943,196.469v4.502
			h-1.468v-10.646h4.655c1.177,0,2.086,0.271,2.729,0.807c0.643,0.537,0.964,1.298,0.964,2.281c0,0.854-0.206,1.521-0.616,1.989
			c-0.412,0.474-1.058,0.783-1.938,0.937l3.04,4.636h-1.685l-2.887-4.5L140.943,196.469L140.943,196.469z M138.199,190.324v1.275
			h-3.287v9.369h-1.47V191.6h-3.319v-1.274L138.199,190.324L138.199,190.324z M129.175,193.296l-1.488,0.144
			c-0.066-1.471-0.958-2.205-2.671-2.205c-0.743,0-1.331,0.147-1.765,0.443c-0.436,0.297-0.649,0.7-0.649,1.209
			c0,0.784,0.606,1.313,1.819,1.584l2.404,0.528c0.846,0.192,1.49,0.537,1.938,1.035c0.445,0.495,0.669,1.12,0.669,1.875
			c0,0.974-0.401,1.771-1.203,2.396c-0.804,0.625-1.827,0.938-3.073,0.938c-0.764,0-1.479-0.121-2.146-0.361
			c-0.669-0.241-1.19-0.571-1.569-0.987c-0.503-0.558-0.799-1.326-0.888-2.313l1.582-0.192c0.04,0.864,0.319,1.53,0.836,1.995
			c0.516,0.466,1.233,0.697,2.155,0.697c0.813,0,1.459-0.19,1.934-0.574c0.475-0.381,0.711-0.899,0.711-1.557
			c0-0.849-0.576-1.396-1.729-1.646l-1.883-0.404c-1.063-0.229-1.849-0.569-2.354-1.022c-0.509-0.45-0.761-1.037-0.761-1.754
			c0-0.899,0.367-1.634,1.104-2.201c0.736-0.565,1.688-0.851,2.865-0.851c1.221,0,2.166,0.259,2.833,0.773
			C128.523,191.357,128.962,192.176,129.175,193.296z M111.527,187.018h1.45l-1.294,2.351h-0.725L111.527,187.018z M112.931,196.484
			l-1.497-4.318l-1.599,4.318H112.931z M113.367,197.714h-4l-1.224,3.257h-1.574l4.146-10.646h1.498l3.883,10.646h-1.561
			L113.367,197.714z M99.401,190.324v5.146l4.988-5.146h1.809l-4.325,4.416l4.543,6.229h-1.752l-3.771-5.24l-1.489,1.517v3.729
			h-1.469v-10.647L99.401,190.324L99.401,190.324z M96.242,193.531l-1.521,0.24c-0.541-1.691-1.69-2.539-3.452-2.539
			c-1.159,0-2.065,0.393-2.72,1.176c-0.655,0.781-0.982,1.865-0.982,3.25c0,1.375,0.338,2.451,1.014,3.238
			c0.674,0.785,1.604,1.18,2.781,1.18c0.884,0,1.593-0.23,2.124-0.695c0.533-0.465,0.962-1.225,1.29-2.277l1.552,0.25
			c-0.861,2.592-2.565,3.891-5.111,3.891c-1.589,0-2.859-0.498-3.813-1.492c-0.953-0.996-1.431-2.32-1.431-3.979
			c0-1.734,0.482-3.121,1.449-4.15c0.965-1.033,2.263-1.551,3.89-1.551C93.796,190.066,95.441,191.223,96.242,193.531z
			 M82.523,190.324h1.468v10.646h-1.468V190.324z M81.248,190.324v1.275h-3.289v9.369H76.49V191.6h-3.32v-1.274L81.248,190.324
			L81.248,190.324z M70.748,196.484l-1.498-4.318l-1.598,4.318H70.748z M71.184,197.714h-3.999l-1.224,3.257h-1.574l4.146-10.646
			h1.497l3.881,10.646h-1.559L71.184,197.714z M56.564,195.24h3.306c1.393,0,2.09-0.596,2.09-1.781c0-0.604-0.184-1.072-0.552-1.404
			c-0.368-0.334-0.889-0.5-1.563-0.5h-3.28L56.564,195.24L56.564,195.24z M56.564,196.469v4.502h-1.47v-10.646h4.658
			c1.176,0,2.084,0.271,2.728,0.807c0.644,0.537,0.964,1.298,0.964,2.281c0,0.854-0.206,1.521-0.617,1.989
			c-0.412,0.474-1.057,0.783-1.937,0.937l3.04,4.636h-1.684l-2.885-4.5L56.564,196.469L56.564,196.469z M46.807,190.324v5.146
			l4.988-5.146h1.809l-4.326,4.416l4.544,6.229h-1.754l-3.772-5.24l-1.488,1.517v3.729h-1.469v-10.647L46.807,190.324
			L46.807,190.324z M37.961,191.232c-1.117,0-2.027,0.41-2.729,1.229c-0.702,0.816-1.054,1.883-1.054,3.188
			c0,1.312,0.352,2.375,1.054,3.195c0.702,0.819,1.612,1.229,2.729,1.229c1.119,0,2.028-0.407,2.73-1.229
			c0.702-0.818,1.053-1.886,1.053-3.195c0-1.307-0.351-2.369-1.053-3.188S39.08,191.232,37.961,191.232z M37.961,190.066
			c1.555,0,2.84,0.529,3.855,1.584c1.018,1.057,1.523,2.391,1.523,4c0,1.617-0.508,2.953-1.523,4.01
			c-1.015,1.055-2.301,1.582-3.855,1.582c-1.554,0-2.838-0.527-3.854-1.582c-1.016-1.057-1.524-2.393-1.524-4.01
			c0-1.609,0.508-2.943,1.524-4C35.123,190.596,36.407,190.066,37.961,190.066z M30.603,190.324v10.646H29.23v-8.31l-3.071,8.31
			h-1.185l-3.071-8.31v8.31h-1.389v-10.646h1.926l3.148,8.604l3.104-8.604H30.603z M18.547,190.324v1.275h-6.114v3.256h5.315v1.275
			h-5.315v3.561h6.337v1.276h-7.807v-10.646h7.584V190.324z M1.469,199.691h2.394c0.687,0,1.231-0.074,1.638-0.229
			c0.404-0.151,0.764-0.42,1.074-0.799c0.588-0.726,0.881-1.729,0.881-3.021c0-1.285-0.293-2.289-0.881-3.013
			c-0.313-0.381-0.669-0.646-1.072-0.801c-0.401-0.151-0.949-0.229-1.641-0.229H1.469V199.691z M0,200.971v-10.646h4.033
			c1.605,0,2.829,0.454,3.674,1.364c0.844,0.908,1.266,2.229,1.266,3.953c0,1.731-0.422,3.053-1.266,3.963
			c-0.845,0.908-2.068,1.363-3.674,1.363L0,200.971L0,200.971z"/>
	</g>
</g>
</svg>
