<?xml version="1.0" encoding="UTF-8"?> <svg xmlns="http://www.w3.org/2000/svg" xmlns:xlink="http://www.w3.org/1999/xlink" id="Layer_1" viewBox="0 0 883.39 152.11"><defs><style>.cls-1{fill:url(#linear-gradient);}.cls-2{fill:#fff;}.cls-3{fill:url(#linear-gradient-2);}</style><linearGradient id="linear-gradient" x1="394.58" y1="144.81" x2="-10.32" y2="-31.38" gradientUnits="userSpaceOnUse"><stop offset="0" stop-color="#c1272d"></stop><stop offset=".08" stop-color="#c22a30"></stop><stop offset=".15" stop-color="#c5353a"></stop><stop offset=".21" stop-color="#ca474c"></stop><stop offset=".28" stop-color="#d16065"></stop><stop offset=".34" stop-color="#db8185"></stop><stop offset=".4" stop-color="#e6aaac"></stop><stop offset=".46" stop-color="#f4d9da"></stop><stop offset=".5" stop-color="#fff"></stop><stop offset=".81" stop-color="#0075be"></stop><stop offset=".99" stop-color="#005b97"></stop></linearGradient><linearGradient id="linear-gradient-2" x1="379.9" y1="178.52" x2="-24.99" y2="2.33" xlink:href="#linear-gradient"></linearGradient></defs><g><path class="cls-2" d="M372.14,66.05h17.89c-.06,.17-.08,.57-.08,1.22,0,2.1,.78,3.81,2.33,5.14,1.55,1.33,3.7,2,6.45,2,2.04,0,3.6-.4,4.68-1.2,1.08-.8,1.62-1.92,1.62-3.38,0-1.23-.31-2.17-.95-2.81-.63-.64-1.78-1.34-3.46-2.1l-10.25-4.37c-2.86-1.23-5.66-3.15-8.4-5.75-2.77-2.63-4.16-6.42-4.16-11.38,0-5.68,2.25-10.31,6.76-13.88,4.51-3.57,10.48-5.35,17.93-5.35s13.4,1.75,17.95,5.25c4.55,3.5,6.82,8.13,6.82,13.9,0,1.06-.06,2.04-.17,2.94h-17.8c.17-.67,.25-1.33,.25-1.97,0-1.93-.69-3.46-2.06-4.6-1.37-1.13-3.21-1.7-5.5-1.7-1.93,0-3.37,.39-4.33,1.15-.95,.77-1.43,1.77-1.43,3,0,1.09,.32,1.95,.97,2.56,.64,.62,1.61,1.22,2.9,1.81l11.25,4.75c3.13,1.29,5.95,3.26,8.44,5.92,2.46,2.63,3.7,6.3,3.7,11,0,5.99-2.3,10.83-6.91,14.51-4.6,3.68-10.62,5.52-18.04,5.52-5.07,0-9.6-.87-13.61-2.6-4-1.74-7.17-4.3-9.49-7.68-2.32-3.39-3.43-7.35-3.32-11.88Z"></path><path class="cls-2" d="M490.64,44.47c0,4.62-1.12,8.74-3.36,12.37-2.24,3.63-5.35,6.44-9.34,8.44-3.99,2-8.49,3-13.5,3h-15.16l-4.37,19.11h-17.89l14.45-62.36h27.34c6.86,0,12.21,1.74,16.06,5.21,3.85,3.47,5.77,8.22,5.77,14.24Zm-18.39,1.72c0-2.04-.59-3.49-1.78-4.33-1.19-.84-3.06-1.26-5.61-1.26h-9.11l-3.02,12.98h10.58c2.74,0,4.92-.67,6.53-2.02,1.61-1.34,2.42-3.13,2.42-5.38Z"></path><path class="cls-2" d="M494.25,57.61c-.03-4.79,.83-9.26,2.56-13.42,1.74-4.16,4.16-7.71,7.26-10.67,3.11-2.95,6.9-5.26,11.38-6.93,4.48-1.67,9.34-2.47,14.57-2.41,4.81-.03,9.28,.71,13.4,2.2,4.12,1.5,7.61,3.58,10.5,6.26,2.88,2.67,5.12,5.91,6.72,9.72,1.6,3.81,2.37,7.92,2.31,12.35,.06,4.82-.8,9.32-2.56,13.5-1.76,4.18-4.21,7.75-7.35,10.69-3.14,2.94-6.95,5.24-11.44,6.91-4.49,1.67-9.33,2.47-14.51,2.41-6.47,0-12.19-1.27-17.17-3.82-4.98-2.55-8.84-6.14-11.57-10.77-2.73-4.63-4.09-9.97-4.09-16.02Zm50.22-2.56c0-4.7-1.35-8.48-4.05-11.32-2.7-2.84-6.28-4.26-10.73-4.26-4.87,0-8.92,1.7-12.14,5.1-3.22,3.4-4.83,7.66-4.83,12.79,0,4.7,1.35,8.48,4.05,11.32,2.7,2.84,6.28,4.26,10.73,4.26,4.87,0,8.92-1.7,12.14-5.1,3.22-3.4,4.83-7.66,4.83-12.79Z"></path><path class="cls-2" d="M578.07,25.03h17.89l-10.83,46.78h25.7l-3.61,15.58h-43.59l14.45-62.36Z"></path><path class="cls-2" d="M614.94,57.61c-.03-4.79,.83-9.26,2.56-13.42,1.74-4.16,4.16-7.71,7.26-10.67,3.11-2.95,6.9-5.26,11.38-6.93,4.48-1.67,9.34-2.47,14.57-2.41,4.81-.03,9.28,.71,13.4,2.2,4.12,1.5,7.61,3.58,10.5,6.26,2.88,2.67,5.12,5.91,6.72,9.72,1.6,3.81,2.37,7.92,2.31,12.35,.06,4.82-.8,9.32-2.56,13.5-1.76,4.18-4.21,7.75-7.35,10.69-3.14,2.94-6.95,5.24-11.44,6.91-4.49,1.67-9.33,2.47-14.51,2.41-6.47,0-12.19-1.27-17.17-3.82-4.98-2.55-8.84-6.14-11.57-10.77-2.73-4.63-4.09-9.97-4.09-16.02Zm50.22-2.56c0-4.7-1.35-8.48-4.05-11.32-2.7-2.84-6.28-4.26-10.73-4.26-4.87,0-8.92,1.7-12.14,5.1-3.22,3.4-4.83,7.66-4.83,12.79,0,4.7,1.35,8.48,4.05,11.32,2.7,2.84,6.28,4.26,10.73,4.26,4.87,0,8.92-1.7,12.14-5.1,3.22-3.4,4.83-7.66,4.83-12.79Z"></path><path class="cls-2" d="M689.56,57.99c-.08-4.73,.73-9.19,2.44-13.37,1.71-4.18,4.09-7.79,7.14-10.81,3.05-3.02,6.79-5.4,11.21-7.12,4.42-1.72,9.18-2.55,14.28-2.5,8.57,0,15.74,2.19,21.52,6.57,5.78,4.38,9.1,10.13,9.97,17.24h-19.36c-.81-2.55-2.38-4.6-4.7-6.17-2.32-1.57-5-2.35-8.02-2.35-4.82,0-8.69,1.63-11.61,4.89-2.92,3.26-4.39,7.57-4.39,12.91,0,4.79,1.18,8.59,3.55,11.42,2.37,2.83,5.54,4.24,9.51,4.24,2.69,0,5.12-.63,7.31-1.89s3.71-2.9,4.58-4.91h20.53c-1.48,6.58-5.18,11.9-11.09,15.98-5.91,4.07-12.91,6.11-21,6.11-6.3,0-11.86-1.22-16.67-3.67-4.82-2.45-8.55-5.97-11.21-10.56-2.66-4.59-3.99-9.92-3.99-16ZM721.09,.55l7.94,10.54,12.39-11.09,7.39,8.36-16.25,13.56h-8.94l-11.3-13.9,8.78-7.47Z"></path><path class="cls-2" d="M827.63,25.03l-14.36,62.36h-17.97l-13.77-33.55-7.81,33.55h-17.89l14.45-62.36h17.89l13.73,33.72,7.85-33.72h17.89Z"></path><path class="cls-2" d="M838.34,25.03h45.06l-3.44,15.08h-27.25l-2.14,9.28h24.65l-3.23,14.11h-24.69l-2.06,8.94h27.25l-3.44,14.95h-45.14l14.45-62.36Z"></path></g><g><path class="cls-2" d="M373.19,131.76c0-10.06,7.95-15.34,15.68-15.34s15.68,5.28,15.68,15.34-7.95,15.34-15.68,15.34-15.68-5.28-15.68-15.34Zm15.68,7.39c3.81,0,6.99-2.84,6.99-7.39s-3.18-7.39-6.99-7.39-6.99,2.84-6.99,7.39,3.18,7.39,6.99,7.39Z"></path><path class="cls-2" d="M417.28,106.19v14.15h.17c.45-1.08,3.52-3.92,8.75-3.92,6.7,0,14.09,5.06,14.09,15.34s-7.39,15.34-14.09,15.34c-5.23,0-8.3-2.84-8.75-3.92h-.17v3.35h-8.81v-40.34h8.81Zm7.1,33.07c3.75,0,7.22-2.73,7.22-7.5s-3.47-7.5-7.22-7.5-7.33,2.67-7.33,7.5,3.47,7.5,7.33,7.5Z"></path><path class="cls-2" d="M442.79,131.7c0-10,7.84-15.28,15.74-15.28,5.23,0,9.83,2.39,12.73,7.27l-6.36,4.15c-1.42-1.93-3.52-3.47-6.36-3.47-3.81,0-7.05,2.84-7.05,7.33s3.24,7.44,7.05,7.44c2.84,0,4.94-1.53,6.36-3.47l6.36,4.15c-2.9,4.77-7.5,7.27-12.73,7.27-7.9,0-15.74-5.28-15.74-15.4Zm9.6-27.16l5.11,5.63,5.11-5.63,4.15,3.69-6.36,7.22h-5.74l-6.42-7.22,4.15-3.69Z"></path><path class="cls-2" d="M473.75,131.76c0-10.28,7.39-15.34,14.09-15.34,5.23,0,8.3,2.84,8.75,3.92h.17v-3.35h8.81v29.55h-8.81v-3.35h-.17c-.45,1.08-3.52,3.92-8.75,3.92-6.7,0-14.09-5.06-14.09-15.34Zm15.91,7.5c3.86,0,7.33-2.67,7.33-7.5s-3.47-7.5-7.33-7.5-7.22,2.73-7.22,7.5,3.47,7.5,7.22,7.5Z"></path><path class="cls-2" d="M510.91,116.99h8.81v3.75c1.65-2.5,4.55-4.32,8.75-4.32,5.97,0,11.02,3.69,11.02,12.73v17.39h-8.81v-15.85c0-3.69-1.87-6.42-5.51-6.42s-5.45,2.73-5.45,6.42v15.85h-8.81v-29.55Z"></path><path class="cls-2" d="M544.82,106.19h8.81v7.67h-8.81v-7.67Zm0,10.8h8.81v29.55h-8.81v-29.55Z"></path><path class="cls-2" d="M557.55,131.76c0-10.28,7.39-15.34,14.09-15.34,5.23,0,8.3,2.84,8.75,3.92h.17v-3.35h8.81v29.55h-8.81v-3.35h-.17c-.45,1.08-3.52,3.92-8.75,3.92-6.7,0-14.09-5.06-14.09-15.34Zm15.91,7.5c3.86,0,7.33-2.67,7.33-7.5s-3.47-7.5-7.33-7.5-7.22,2.73-7.22,7.5,3.47,7.5,7.22,7.5Z"></path><path class="cls-2" d="M604.76,136.99l7.27-3.35c1.14,2.73,3.3,5.34,7.1,5.34,2.67,0,5.11-1.31,5.11-4.43,0-2.39-1.31-3.52-5.17-5.06l-2.5-.97c-5.4-2.16-10.34-5.11-10.34-11.65,0-6.99,5.85-11.25,12.84-11.25s11.36,4.32,13.3,8.58l-6.65,3.75c-1.76-3.07-3.81-4.37-6.31-4.37s-4.32,1.14-4.32,3.41c0,1.76,1.02,3.13,5.23,4.83l2.73,1.08c7.27,2.9,10.51,6.19,10.51,11.76,0,8.41-7.5,12.44-14.32,12.44s-12.96-4.2-14.49-10.11Z"></path><path class="cls-2" d="M637.48,106.19h8.81v40.34h-8.81v-40.34Z"></path><path class="cls-2" d="M650.21,131.76c0-10.06,7.95-15.34,15.68-15.34s15.68,5.28,15.68,15.34-7.95,15.34-15.68,15.34-15.68-5.28-15.68-15.34Zm15.68,7.39c3.81,0,6.99-2.84,6.99-7.39s-3.18-7.39-6.99-7.39-6.99,2.84-6.99,7.39,3.18,7.39,6.99,7.39Z"></path><path class="cls-2" d="M681.8,116.99h8.98l7.5,19.2,7.5-19.2h8.98l-12.39,29.55h-8.18l-12.39-29.55Z"></path><path class="cls-2" d="M714.98,131.82c0-10,7.44-15.4,15.06-15.4s16.31,5.23,14.43,18.75h-21.02c1.19,3.18,4.15,4.77,8.07,4.77,2.61,0,4.94-.63,7.1-2.27l3.98,4.15c-2.44,3.07-6.65,5.28-12.05,5.28-8.18,0-15.57-5.57-15.57-15.28Zm21.76-2.95c-.62-3.41-3.64-5.06-6.59-5.06s-5.91,1.53-6.88,5.06h13.47Z"></path><path class="cls-2" d="M748.67,116.99h8.81v3.75c1.65-2.5,4.54-4.32,8.75-4.32,5.97,0,11.02,3.69,11.02,12.73v17.39h-8.81v-15.85c0-3.69-1.87-6.42-5.51-6.42s-5.45,2.73-5.45,6.42v15.85h-8.81v-29.55Z"></path><path class="cls-2" d="M780.88,138.69l6.99-1.87c.45,1.42,1.48,3.41,4.26,3.41,1.59,0,3.07-.8,3.07-2.44,0-.97-.57-1.87-2.5-2.5l-3.98-1.48c-4.89-1.76-6.99-4.94-6.99-8.64,0-5.51,4.94-8.75,10.74-8.75s9.6,3.13,10.62,7.9l-6.88,1.7c-.74-2.27-2.22-2.78-3.41-2.78-1.7,0-2.56,1.02-2.56,2.05,0,.97,.57,1.87,2.56,2.5l3.69,1.36c3.18,1.08,7.39,3.3,7.39,8.64,0,5.97-5.06,9.32-11.65,9.32-5.97,0-10.45-2.78-11.36-8.41Z"></path><path class="cls-2" d="M807.81,106.19h8.81v21.99l9.77-11.19h10.51l-11.59,12.84,12.79,16.7h-9.72l-8.52-10.74-3.24,3.64v7.1h-8.81v-40.34Z"></path><path class="cls-2" d="M836.9,131.76c0-10.28,7.39-15.34,14.09-15.34,5.23,0,8.3,2.84,8.75,3.92h.17v-3.35h8.81v29.55h-8.81v-3.35h-.17c-.45,1.08-3.52,3.92-8.75,3.92-6.7,0-14.09-5.06-14.09-15.34Zm15.91,7.5c3.86,0,7.33-2.67,7.33-7.5s-3.47-7.5-7.33-7.5-7.22,2.73-7.22,7.5,3.47,7.5,7.22,7.5Z"></path></g><g><path class="cls-1" d="M155.5,66.79c-4.03-4.67-11.09-5.18-15.75-1.15-4.67,4.03-5.18,11.08-1.15,15.75l22.19,25.68c2.12,2.45,5.2,3.87,8.45,3.87s6.33-1.41,8.45-3.87L244.28,30.02c4.03-4.67,3.52-11.72-1.15-15.75-4.67-4.03-11.72-3.52-15.75,1.15l-58.13,67.27-13.74-15.91Z"></path><path class="cls-3" d="M335.01,66.64c.23-1.82,.34-3.82,.34-5.99,0-11.75-4.63-21.19-13.9-28.32-9.27-7.13-21.46-10.69-36.57-10.69s-27.35,3.64-36.53,10.91c-9.18,7.27-13.77,16.7-13.77,28.27,0,10.1,2.82,17.83,8.47,23.19,5.59,5.3,11.29,9.21,17.11,11.72l20.88,8.9c3.42,1.54,5.77,2.97,7.06,4.28,1.28,1.31,1.93,3.22,1.93,5.73,0,2.97-1.1,5.26-3.29,6.89-2.2,1.62-5.38,2.44-9.54,2.44-5.59,0-9.97-1.35-13.13-4.06-3.17-2.71-4.75-6.2-4.75-10.48,0-1.31,.06-2.14,.17-2.48h-32.83c2-6.2,3.06-12.74,3.06-19.45,0-3.08-2.5-5.58-5.58-5.58s-5.58,2.5-5.58,5.58c0,13.87-5.4,26.91-15.21,36.71-9.8,9.81-22.84,15.21-36.71,15.21-28.63,0-51.93-23.29-51.93-51.93,0-13.87,5.4-26.91,15.21-36.71,9.8-9.81,22.84-15.21,36.71-15.21,2.88,0,5.76,.24,8.58,.7,3.04,.51,5.92-1.55,6.42-4.59,.5-3.04-1.55-5.92-4.59-6.42-3.42-.57-6.92-.85-10.41-.85-16.86,0-32.7,6.56-44.61,18.48-3.91,3.9-7.22,8.23-9.94,12.87-1.14-9.5-5.67-17.31-13.61-23.42-9.27-7.13-21.46-10.69-36.57-10.69s-27.35,3.64-36.53,10.91c-9.18,7.27-13.77,16.7-13.77,28.27,0,10.1,2.82,17.83,8.47,23.19,5.59,5.3,11.29,9.21,17.11,11.72l20.88,8.9c3.42,1.54,5.77,2.97,7.06,4.28,1.28,1.31,1.93,3.22,1.93,5.73,0,2.97-1.1,5.26-3.29,6.89-2.2,1.62-5.38,2.44-9.54,2.44-5.59,0-9.97-1.35-13.13-4.06-3.17-2.71-4.75-6.2-4.75-10.48,0-1.31,.06-2.14,.17-2.48H.02c-.23,9.24,2.02,17.31,6.76,24.21,4.73,6.9,11.18,12.12,19.34,15.66,8.16,3.54,17.4,5.3,27.72,5.3,15.11,0,27.36-3.75,36.75-11.25,9.38-7.5,14.07-17.35,14.07-29.56,0-9.58-2.51-17.05-7.53-22.42-5.08-5.42-10.81-9.44-17.2-12.06l-22.93-9.67c-2.62-1.2-4.59-2.42-5.9-3.68-1.31-1.25-1.97-2.99-1.97-5.22,0-2.51,.97-4.55,2.91-6.12,1.94-1.57,4.88-2.35,8.81-2.35,4.68,0,8.41,1.15,11.21,3.47,2.79,2.31,4.19,5.43,4.19,9.37,0,1.31-.17,2.65-.51,4.02h31.29c-2.31,6.61-3.52,13.63-3.52,20.85,0,34.79,28.3,63.09,63.09,63.09,16.86,0,32.7-6.56,44.61-18.48,5.11-5.1,9.22-10.93,12.27-17.25,.87,6.01,2.97,11.45,6.3,16.3,4.73,6.9,11.18,12.12,19.34,15.66,8.16,3.54,17.4,5.3,27.72,5.3,15.11,0,27.36-3.75,36.75-11.25,9.38-7.5,14.07-17.35,14.07-29.56,0-9.58-2.51-17.05-7.53-22.42-5.08-5.42-10.81-9.44-17.2-12.06l-22.93-9.67c-2.62-1.2-4.59-2.42-5.9-3.68-1.31-1.25-1.97-2.99-1.97-5.22,0-2.51,.97-4.55,2.91-6.12,1.94-1.57,4.88-2.35,8.81-2.35,4.68,0,8.41,1.15,11.21,3.47,2.79,2.31,4.19,5.43,4.19,9.37,0,1.31-.17,2.65-.51,4.02h36.28Z"></path></g></svg> 