<svg xmlns="http://www.w3.org/2000/svg" viewBox="-200 -200 2400 994"><defs><style>.cls-1{fill:#22468d;}.cls-2{fill:#fff;}</style></defs><title>za-ludi_logo_rgb</title><g id="Logootype"><polygon class="cls-1" points="1 1.11 1 592.89 1890.44 592.89 1999 297 1890.44 1.11 1 1.11"/><polygon class="cls-2" points="375.75 216.27 381.31 136.47 152.01 136.47 145.45 220.31 258.07 220.31 129.28 382.93 122.72 464.75 359.59 464.75 366.15 378.89 248.98 378.89 375.75 216.27"/><path class="cls-2" d="M491.41,136.47,370.7,464.75h96l18.31-51h87.45l6.36,51h99l-48-328.28Zm23.28,194.44,34.8-97,.31-.47.2.47,12.09,97Z"/><polygon class="cls-2" points="931.31 136.47 834.34 136.47 798.99 464.75 1012.63 464.75 1022.73 371.82 905.55 371.82 931.31 136.47"/><polygon class="cls-2" points="962.63 136.47 948.99 264.75 1000.5 264.75 1044.95 143.54 1043.94 136.47 962.63 136.47"/><path class="cls-2" d="M1226.77,347.08c-2,20.2-19.19,32.82-40.91,32.82-19.7,0-37.88-7.07-34.85-32.82l23.23-210.61h-96.46l-23.23,211.62c-9.09,82.82,45,124.74,118.68,124.74,94.45,0,142.93-61.61,150-128.79L1346,136.47H1249.5Z"/><path class="cls-2" d="M1507.58,136.47h-119.7l-35.35,328.28h119.7c108.08,0,174.24-75.76,178.28-187.37C1654.05,173.84,1585.36,136.47,1507.58,136.47ZM1551,300.61c-5,47.48-29.8,73.23-69.2,73.23h-23.73l15.65-146.46h23.74C1541.92,227.38,1557.08,247.07,1551,300.61Z"/><polygon class="cls-2" points="1797.48 109.19 1837.38 62.73 1834.86 55.66 1739.91 55.66 1703.04 105.15 1704.55 109.19 1797.48 109.19"/><polygon class="cls-2" points="1665.66 464.75 1762.63 464.75 1798.49 136.47 1701.52 136.47 1665.66 464.75"/></g></svg>